[Header]
FileType HTR
DataType HTRS
FileVersion 1
NumSegments 64
NumFrames 4
DataFrameRate 30
EulerRotationOrder ZYX
CalibrationUnits mm
RotationUnits Degrees
GlobalAxisofGravity Y
BoneLengthAxis Y
ScaleFactor 1.0
[SegmentNames&Hierarchy]
Hips	GLOBAL
Spine	Hips
Spine1	Spine
Spine2	Spine1
Neck	Spine2
Head	Neck
LeftEye	Head
RightEye	Head
LeftShoulder	Spine2
LeftArm	LeftShoulder
LeftForeArm	LeftArm
LeftHand	LeftForeArm
LeftHandThumb1	LeftHand
LeftHandThumb2	LeftHandThumb1
LeftHandThumb3	LeftHandThumb2
LeftHandThumb4	LeftHandThumb3
LeftHandIndex1	LeftHand
LeftHandIndex2	LeftHandIndex1
LeftHandIndex3	LeftHandIndex2
LeftHandIndex4	LeftHandIndex3
LeftHandMiddle1	LeftHand
LeftHandMiddle2	LeftHandMiddle1
LeftHandMiddle3	LeftHandMiddle2
LeftHandMiddle4	LeftHandMiddle3
LeftHandRing1	LeftHand
LeftHandRing2	LeftHandRing1
LeftHandRing3	LeftHandRing2
LeftHandRing4	LeftHandRing3
LeftHandPinky1	LeftHand
LeftHandPinky2	LeftHandPinky1
LeftHandPinky3	LeftHandPinky2
LeftHandPinky4	LeftHandPinky3
RightShoulder	Spine2
RightArm	RightShoulder
RightForeArm	RightArm
RightHand	RightForeArm
RightHandPinky1	RightHand
RightHandPinky2	RightHandPinky1
RightHandPinky3	RightHandPinky2
RightHandPinky4	RightHandPinky3
RightHandRing1	RightHand
RightHandRing2	RightHandRing1
RightHandRing3	RightHandRing2
RightHandRing4	RightHandRing3
RightHandMiddle1	RightHand
RightHandMiddle2	RightHandMiddle1
RightHandMiddle3	RightHandMiddle2
RightHandMiddle4	RightHandMiddle3
RightHandIndex1	RightHand
RightHandIndex2	RightHandIndex1
RightHandIndex3	RightHandIndex2
RightHandIndex4	RightHandIndex3
RightHandThumb1	RightHand
RightHandThumb2	RightHandThumb1
RightHandThumb3	RightHandThumb2
RightHandThumb4	RightHandThumb3
LeftUpLeg	Hips
LeftLeg	LeftUpLeg
LeftFoot	LeftLeg
LeftToeBase	LeftFoot
RightUpLeg	Hips
RightLeg	RightUpLeg
RightFoot	RightLeg
RightToeBase	RightFoot
[BasePosition]
Hips	0	0	0	0	0	0	1
Spine	0	0	0	0	0	0	1
Spine1	0	0	0	0	0	0	1
Spine2	0	0	0	0	0	0	1
Neck	0	0	0	0	0	0	1
Head	0	0	0	0	0	0	1
LeftEye	0	0	0	0	0	0	1
RightEye	0	0	0	0	0	0	1
LeftShoulder	0	0	0	0	0	0	1
LeftArm	0	0	0	0	0	0	1
LeftForeArm	0	0	0	0	0	0	1
LeftHand	0	0	0	0	0	0	1
LeftHandThumb1	0	0	0	0	0	0	1
LeftHandThumb2	0	0	0	0	0	0	1
LeftHandThumb3	0	0	0	0	0	0	1
LeftHandThumb4	0	0	0	0	0	0	1
LeftHandIndex1	0	0	0	0	0	0	1
LeftHandIndex2	0	0	0	0	0	0	1
LeftHandIndex3	0	0	0	0	0	0	1
LeftHandIndex4	0	0	0	0	0	0	1
LeftHandMiddle1	0	0	0	0	0	0	1
LeftHandMiddle2	0	0	0	0	0	0	1
LeftHandMiddle3	0	0	0	0	0	0	1
LeftHandMiddle4	0	0	0	0	0	0	1
LeftHandRing1	0	0	0	0	0	0	1
LeftHandRing2	0	0	0	0	0	0	1
LeftHandRing3	0	0	0	0	0	0	1
LeftHandRing4	0	0	0	0	0	0	1
LeftHandPinky1	0	0	0	0	0	0	1
LeftHandPinky2	0	0	0	0	0	0	1
LeftHandPinky3	0	0	0	0	0	0	1
LeftHandPinky4	0	0	0	0	0	0	1
RightShoulder	0	0	0	0	0	0	1
RightArm	0	0	0	0	0	0	1
RightForeArm	0	0	0	0	0	0	1
RightHand	0	0	0	0	0	0	1
RightHandPinky1	0	0	0	0	0	0	1
RightHandPinky2	0	0	0	0	0	0	1
RightHandPinky3	0	0	0	0	0	0	1
RightHandPinky4	0	0	0	0	0	0	1
RightHandRing1	0	0	0	0	0	0	1
RightHandRing2	0	0	0	0	0	0	1
RightHandRing3	0	0	0	0	0	0	1
RightHandRing4	0	0	0	0	0	0	1
RightHandMiddle1	0	0	0	0	0	0	1
RightHandMiddle2	0	0	0	0	0	0	1
RightHandMiddle3	0	0	0	0	0	0	1
RightHandMiddle4	0	0	0	0	0	0	1
RightHandIndex1	0	0	0	0	0	0	1
RightHandIndex2	0	0	0	0	0	0	1
RightHandIndex3	0	0	0	0	0	0	1
RightHandIndex4	0	0	0	0	0	0	1
RightHandThumb1	0	0	0	0	0	0	1
RightHandThumb2	0	0	0	0	0	0	1
RightHandThumb3	0	0	0	0	0	0	1
RightHandThumb4	0	0	0	0	0	0	1
LeftUpLeg	0	0	0	0	0	0	1
LeftLeg	0	0	0	0	0	0	1
LeftFoot	0	0	0	0	0	0	1
LeftToeBase	0	0	0	0	0	0	1
RightUpLeg	0	0	0	0	0	0	1
RightLeg	0	0	0	0	0	0	1
RightFoot	0	0	0	0	0	0	1
RightToeBase	0	0	0	0	0	0	1
[Hips]
166	-8.460222244	981.3349609	500.4511108	-554.8814087	229.3413086	-172.7003784	1.0
167	-8.547451019	982.4011841	499.6839905	-554.678772	228.8432465	-172.9118958	1.0
168	-8.547300339	983.3707275	499.0684509	-554.4651489	228.4398346	-173.0412292	1.0
169	-8.48910141	984.2839966	498.6021729	-554.2703857	228.1666718	-173.103653	1.0
[Spine]
166	0	101.8159943	1.315000057	1.638472319	0.4937806427	-0.3933473825	1.0
167	0	101.8159943	1.315000057	1.619791865	0.4855035841	-0.3459350765	1.0
168	0	101.8159943	1.315000057	1.597261071	0.486923039	-0.3119388819	1.0
169	0	101.8159943	1.315000057	1.578811884	0.4947682619	-0.2865080833	1.0
[Spine1]
166	0	100.8349991	-10.00800037	3.277838707	0.7287342548	-0.00964342989	1.0
167	0	100.8349991	-10.00800037	3.240492344	0.7173056006	0.06335825473	1.0
168	0	100.8349991	-10.00800037	3.195462465	0.7246540785	0.1206362769	1.0
169	0	100.8349991	-10.00800037	3.158625364	0.7441729307	0.1690965444	1.0
[Spine2]
166	0	91	-13.73399925	3.277841568	0.7287567258	-0.009642744437	1.0
167	0	91	-13.73399925	3.240492105	0.7172906399	0.06335656345	1.0
168	0	91	-13.73399925	3.195462704	0.7246559262	0.1206358075	1.0
169	0	91	-13.73399925	3.158626556	0.7441886663	0.1690972745	1.0
[Neck]
166	0	166.7169952	-25.16200066	15.31713772	6.060218811	-2.428982973	1.0
167	0	166.7169952	-25.16200066	15.21252346	6.032738686	-2.395146608	1.0
168	0	166.7169952	-25.16200066	15.09573078	6.013664722	-2.371688843	1.0
169	0	166.7169952	-25.16200066	14.97222805	6.005746841	-2.36024189	1.0
[Head]
166	0	96.17900085	16.84999847	-3.453664303	29.79625511	-6.385805607	1.0
167	0	96.17900085	16.84999847	-3.142945528	29.81602287	-6.532523155	1.0
168	0	96.17900085	16.84999847	-2.963362455	29.81195831	-6.613979816	1.0
169	0	96.17900085	16.84999847	-2.866413355	29.80709648	-6.644646168	1.0
[LeftEye]
166	30.6760006	64.09500122	92.83599854	0	0	0	1.0
167	30.6760006	64.09500122	92.83599854	0	0	0	1.0
168	30.6760006	64.09500122	92.83599854	0	0	0	1.0
169	30.6760006	64.09500122	92.83599854	0	0	0	1.0
[RightEye]
166	-30.6760006	64.09500122	92.83499908	0	0	0	1.0
167	-30.6760006	64.09500122	92.83499908	0	0	0	1.0
168	-30.6760006	64.09500122	92.83499908	0	0	0	1.0
169	-30.6760006	64.09500122	92.83499908	0	0	0	1.0
[LeftShoulder]
166	45.70400238	109.4599991	-26.28000069	-0.01085319463	-20.26961327	1.359793663	1.0
167	45.70400238	109.4599991	-26.28000069	0.07944685221	-20.2565918	1.046129584	1.0
168	45.70400238	109.4599991	-26.28000069	0.1531156301	-20.16458321	0.7745341063	1.0
169	45.70400238	109.4599991	-26.28000069	0.2171455473	-20.04770851	0.5273377895	1.0
[LeftArm]
166	105.923996	-5.24600029	-22.32099915	-47.34340286	11.97886848	-36.55011368	1.0
167	105.923996	-5.24600029	-22.32099915	-47.14484406	11.55376339	-36.64243698	1.0
168	105.923996	-5.24600029	-22.32099915	-47.01922226	11.12234974	-36.71401596	1.0
169	105.923996	-5.24600029	-22.32099915	-46.95070648	10.77238274	-36.74614334	1.0
[LeftForeArm]
166	278.414978	-0.0009999999311	0	-547.0152588	-62.31116486	543.8879395	1.0
167	278.414978	-0.0009999999311	0	-546.9529419	-62.44127655	543.8546753	1.0
168	278.414978	-0.0009999999311	0	-546.8944702	-62.54531097	543.8241577	1.0
169	278.414978	-0.0009999999311	0	-546.8474121	-62.60371399	543.7976074	1.0
[LeftHand]
166	283.2879944	0	0	8.668519974	3.917197704	1.845311761	1.0
167	283.2879944	0	0	9.131011009	3.838596582	1.902043819	1.0
168	283.2879944	0	0	9.61615181	3.751574516	2.029372454	1.0
169	283.2879944	0	0	9.910712242	3.714258432	2.083834171	1.0
[LeftHandThumb1]
166	24.6609993	-15.75	26.8239994	9.256613731	-15.39338207	-2.724529028	1.0
167	24.6609993	-15.75	26.8239994	9.363170624	-15.49638653	-2.577169657	1.0
168	24.6609993	-15.75	26.8239994	9.468770027	-15.59829617	-2.431007862	1.0
169	24.6609993	-15.75	26.8239994	9.573327065	-15.6991539	-2.286197424	1.0
[LeftHandThumb2]
166	32.29800034	-18.64699936	18.64699936	-1.043029308	35.37969971	-47.09478378	1.0
167	32.29800034	-18.64699936	18.64699936	-1.064647079	35.34508896	-47.27555466	1.0
168	32.29800034	-18.64699936	18.64699936	-1.085495234	35.31070709	-47.45383072	1.0
169	32.29800034	-18.64699936	18.64699936	-1.105722666	35.27662277	-47.62989426	1.0
[LeftHandThumb3]
166	26.52600098	-15.31499958	15.31499958	3.601811159e-06	-8.438974328e-05	-6.943767221e-05	1.0
167	26.52600098	-15.31499958	15.31499958	3.601811159e-06	-8.438974328e-05	-6.943767221e-05	1.0
168	26.52600098	-15.31499958	15.31499958	3.601811159e-06	-8.438974328e-05	-6.943767221e-05	1.0
169	26.52600098	-15.31499958	15.31499958	3.601811159e-06	-8.438974328e-05	-6.943767221e-05	1.0
[LeftHandThumb4]
166	19.54599953	-11.28499985	11.28499985	0	0	0	1.0
167	19.54599953	-11.28499985	11.28499985	0	0	0	1.0
168	19.54599953	-11.28499985	11.28499985	0	0	0	1.0
169	19.54599953	-11.28499985	11.28499985	0	0	0	1.0
[LeftHandIndex1]
166	91.09299469	-5.170999527	22.60099792	4.861372948	-1.985376477	-109.833107	1.0
167	91.09299469	-5.170999527	22.60099792	4.850296497	-1.981274724	-109.7206497	1.0
168	91.09299469	-5.170999527	22.60099792	4.839140415	-1.977098107	-109.6074066	1.0
169	91.09299469	-5.170999527	22.60099792	4.828003883	-1.972876668	-109.4942017	1.0
[LeftHandIndex2]
166	36.76399994	0	0	-0.1971362382	-8.700651169	-96.23815155	1.0
167	36.76399994	0	0	-0.2103015929	-8.690005302	-96.11830139	1.0
168	36.76399994	0	0	-0.2235303521	-8.679225922	-95.99758148	1.0
169	36.76399994	0	0	-0.2367195785	-8.668416023	-95.87692261	1.0
[LeftHandIndex3]
166	28.83100128	0	0	-1.432096042e-06	3.907105395e-07	1.552835329e-06	1.0
167	28.83100128	0	0	-1.432096042e-06	3.907105395e-07	1.552835329e-06	1.0
168	28.83100128	0	0	-1.432096042e-06	3.907105395e-07	1.552835329e-06	1.0
169	28.83100128	0	0	-1.432096042e-06	3.907105395e-07	1.552835329e-06	1.0
[LeftHandIndex4]
166	23.92700005	0	0	0	0	0	1.0
167	23.92700005	0	0	0	0	0	1.0
168	23.92700005	0	0	0	0	0	1.0
169	23.92700005	0	0	0	0	0	1.0
[LeftHandMiddle1]
166	95.33399963	0	0	1.508708358	-8.034828186	-104.4107437	1.0
167	95.33399963	0	0	1.49757719	-8.026769638	-104.3056488	1.0
168	95.33399963	0	0	1.486374378	-8.018630028	-104.1997604	1.0
169	95.33399963	0	0	1.475200057	-8.010468483	-104.0939178	1.0
[LeftHandMiddle2]
166	36.98199844	0	0	1.259200692	-9.015062332	-95.75495911	1.0
167	36.98199844	0	0	1.248525023	-9.008912086	-95.65328217	1.0
168	36.98199844	0	0	1.237786055	-9.002686501	-95.55088043	1.0
169	36.98199844	0	0	1.22707355	-8.996446609	-95.44855499	1.0
[LeftHandMiddle3]
166	29.50900078	0	0	0	-3.180554719e-15	-7.951386796e-16	1.0
167	29.50900078	0	0	0	-3.180554719e-15	-7.951386796e-16	1.0
168	29.50900078	0	0	0	-3.180554719e-15	-7.951386796e-16	1.0
169	29.50900078	0	0	0	-3.180554719e-15	-7.951386796e-16	1.0
[LeftHandMiddle4]
166	28.3390007	0	0	0	0	0	1.0
167	28.3390007	0	0	0	0	0	1.0
168	28.3390007	0	0	0	0	0	1.0
169	28.3390007	0	0	0	0	0	1.0
[LeftHandRing1]
166	91.04499817	-0.4390000105	-18.65100098	-3.057029963	-10.72531986	-109.2064133	1.0
167	91.04499817	-0.4390000105	-18.65100098	-3.070363998	-10.71407318	-109.102066	1.0
168	91.04499817	-0.4390000105	-18.65100098	-3.083778143	-10.70272732	-108.9969711	1.0
169	91.04499817	-0.4390000105	-18.65100098	-3.097177982	-10.69136047	-108.8918915	1.0
[LeftHandRing2]
166	31.54000092	0	0	7.234194756	-2.314867496	-87.41362762	1.0
167	31.54000092	0	0	7.227710247	-2.319073439	-87.32406616	1.0
168	31.54000092	0	0	7.221167088	-2.323301315	-87.23386383	1.0
169	31.54000092	0	0	7.214622021	-2.327519894	-87.14372253	1.0
[LeftHandRing3]
166	29.37700081	0	0	1.590277359e-15	3.180554719e-15	-7.951386796e-16	1.0
167	29.37700081	0	0	1.590277359e-15	3.180554719e-15	-7.951386796e-16	1.0
168	29.37700081	0	0	1.590277359e-15	3.180554719e-15	-7.951386796e-16	1.0
169	29.37700081	0	0	1.590277359e-15	3.180554719e-15	-7.951386796e-16	1.0
[LeftHandRing4]
166	26.47500038	0	0	0	0	0	1.0
167	26.47500038	0	0	0	0	0	1.0
168	26.47500038	0	0	0	0	0	1.0
169	26.47500038	0	0	0	0	0	1.0
[LeftHandPinky1]
166	80.77799988	-4.887000084	-38.06099701	-2.136330843	-14.99956417	-111.4504929	1.0
167	80.77799988	-4.887000084	-38.06099701	-2.15571332	-14.98177719	-111.3281174	1.0
168	80.77799988	-4.887000084	-38.06099701	-2.175174236	-14.96382713	-111.2050476	1.0
169	80.77799988	-4.887000084	-38.06099701	-2.194580555	-14.94585705	-111.0821533	1.0
[LeftHandPinky2]
166	36	0	0	11.56525612	0.8165504932	-94.44911957	1.0
167	36	0	0	11.5599575	0.8112911582	-94.40237427	1.0
168	36	0	0	11.55463409	0.8058270812	-94.35435486	1.0
169	36	0	0	11.54929733	0.8002633452	-94.30586243	1.0
[LeftHandPinky3]
166	21.14200211	0	0	3.226109357e-06	2.925280342e-06	-5.739977951e-06	1.0
167	21.14200211	0	0	3.226109357e-06	2.925280342e-06	-5.739977951e-06	1.0
168	21.14200211	0	0	3.226109357e-06	2.925280342e-06	-5.739977951e-06	1.0
169	21.14200211	0	0	3.226109357e-06	2.925280342e-06	-5.739977951e-06	1.0
[LeftHandPinky4]
166	19.75699997	0	0	0	0	0	1.0
167	19.75699997	0	0	0	0	0	1.0
168	19.75699997	0	0	0	0	0	1.0
169	19.75699997	0	0	0	0	0	1.0
[RightShoulder]
166	-45.70000076	109.4620056	-26.28000069	-0.1239960343	-1.953457832	1.781194806	1.0
167	-45.70000076	109.4620056	-26.28000069	-0.1469868869	-2.330187559	1.873347402	1.0
168	-45.70000076	109.4620056	-26.28000069	-0.1698338538	-2.658489227	1.959228873	1.0
169	-45.70000076	109.4620056	-26.28000069	-0.1874678433	-2.897152662	2.019802332	1.0
[RightArm]
166	-105.9280014	-5.248000145	-22.32099915	-297.655365	56.88067627	-263.87854	1.0
167	-105.9280014	-5.248000145	-22.32099915	-297.5397339	56.61429977	-263.9458313	1.0
168	-105.9280014	-5.248000145	-22.32099915	-297.3410339	56.50643921	-264.0134888	1.0
169	-105.9280014	-5.248000145	-22.32099915	-297.101532	56.49701691	-264.0098572	1.0
[RightForeArm]
166	-278.414978	0	0	2.058898926	109.2581024	3.023742676	1.0
167	-278.414978	0	0	2.031636477	109.3993912	2.990437508	1.0
168	-278.414978	0	0	2.007269382	109.5049286	2.965165854	1.0
169	-278.414978	0	0	1.991629601	109.5666046	2.949162483	1.0
[RightHand]
166	-283.2879944	0	0.0009999999311	19.91137314	15.74608326	2.223288774	1.0
167	-283.2879944	0	0.0009999999311	19.8819561	15.71462059	1.987882853	1.0
168	-283.2879944	0	0.0009999999311	19.79253387	15.69559479	1.775600672	1.0
169	-283.2879944	0	0.0009999999311	19.67082214	15.69842434	1.594298959	1.0
[RightHandPinky1]
166	-80.76699829	-4.885000229	-38.06000137	1.323141456	15.28068447	113.1715927	1.0
167	-80.76699829	-4.885000229	-38.06000137	1.247619271	15.21028614	112.7171021	1.0
168	-80.76699829	-4.885000229	-38.06000137	1.175585747	15.14260674	112.2831192	1.0
169	-80.76699829	-4.885000229	-38.06000137	1.108230114	15.07891464	111.877182	1.0
[RightHandPinky2]
166	-36	0	0.0009999999311	15.15047741	2.043817997	96.27087402	1.0
167	-36	0	0.0009999999311	15.11041069	2.104545116	95.87921143	1.0
168	-36	0	0.0009999999311	15.07178593	2.162028551	95.5076828	1.0
169	-36	0	0.0009999999311	15.0354147	2.215080976	95.16390991	1.0
[RightHandPinky3]
166	-21.14200211	0	0	-1.590277359e-15	0	-7.951386796e-16	1.0
167	-21.14200211	0	0	-1.590277359e-15	0	-7.951386796e-16	1.0
168	-21.14200211	0	0	-1.590277359e-15	0	-7.951386796e-16	1.0
169	-21.14200211	0	0	-1.590277359e-15	0	-7.951386796e-16	1.0
[RightHandPinky4]
166	-19.75699997	0	0	0	0	0	1.0
167	-19.75699997	0	0	0	0	0	1.0
168	-19.75699997	0	0	0	0	0	1.0
169	-19.75699997	0	0	0	0	0	1.0
[RightHandRing1]
166	-91.03599548	-0.4390000105	-18.65100098	-1.363895297	10.93770599	110.886322	1.0
167	-91.03599548	-0.4390000105	-18.65100098	-1.422768831	10.88788605	110.4592438	1.0
168	-91.03599548	-0.4390000105	-18.65100098	-1.478803515	10.83991241	110.0518341	1.0
169	-91.03599548	-0.4390000105	-18.65100098	-1.531044722	10.79471588	109.6713867	1.0
[RightHandRing2]
166	-31.54000092	0	0	8.80821228	3.587156534	89.45586395	1.0
167	-31.54000092	0	0	8.763179779	3.610362768	88.98935699	1.0
168	-31.54000092	0	0	8.720002174	3.632283449	88.54418945	1.0
169	-31.54000092	0	0	8.679476738	3.652568102	88.12838745	1.0
[RightHandRing3]
166	-29.37700081	0	0	5.740008078e-07	-7.531911024e-07	-2.69121324e-06	1.0
167	-29.37700081	0	0	5.740008078e-07	-7.531911024e-07	-2.69121324e-06	1.0
168	-29.37700081	0	0	5.740008078e-07	-7.531911024e-07	-2.69121324e-06	1.0
169	-29.37700081	0	0	5.740008078e-07	-7.531911024e-07	-2.69121324e-06	1.0
[RightHandRing4]
166	-26.47500038	0	0	0	0	0	1.0
167	-26.47500038	0	0	0	0	0	1.0
168	-26.47500038	0	0	0	0	0	1.0
169	-26.47500038	0	0	0	0	0	1.0
[RightHandMiddle1]
166	-95.32500458	0	0	0.5403370857	8.157502174	105.9312973	1.0
167	-95.32500458	0	0	0.4968388379	8.126971245	105.5287094	1.0
168	-95.32500458	0	0	0.4555326998	8.09739399	105.1446457	1.0
169	-95.32500458	0	0	0.417103827	8.069367409	104.7859573	1.0
[RightHandMiddle2]
166	-36.98199844	0	0	0.203348875	8.033344269	97.9863739	1.0
167	-36.98199844	0	0	0.1586702615	8.002011299	97.47272491	1.0
168	-36.98199844	0	0	0.1163966656	7.971503258	96.98272705	1.0
169	-36.98199844	0	0	0.07723615319	7.942483902	96.52509308	1.0
[RightHandMiddle3]
166	-29.50900078	0	0	1.856611448e-06	-0.002022909233	1.577868488e-06	1.0
167	-29.50900078	0	0	1.856611448e-06	-0.002022909233	1.577868488e-06	1.0
168	-29.50900078	0	0	1.856611448e-06	-0.002022909233	1.577868488e-06	1.0
169	-29.50900078	0	0	1.856611448e-06	-0.002022909233	1.577868488e-06	1.0
[RightHandMiddle4]
166	-28.3390007	0	0.0009999999311	0	0	0	1.0
167	-28.3390007	0	0.0009999999311	0	0	0	1.0
168	-28.3390007	0	0.0009999999311	0	0	0	1.0
169	-28.3390007	0	0.0009999999311	0	0	0	1.0
[RightHandIndex1]
166	-91.08300018	-5.167999744	22.60099792	3.768774509	2.038294792	111.2341461	1.0
167	-91.08300018	-5.167999744	22.60099792	3.730700493	2.024610758	110.8398132	1.0
168	-91.08300018	-5.167999744	22.60099792	3.694545746	2.011163473	110.4636002	1.0
169	-91.08300018	-5.167999744	22.60099792	3.660897017	1.998249531	110.1121902	1.0
[RightHandIndex2]
166	-36.76399994	0	0	-1.352985501	7.697308064	98.51203156	1.0
167	-36.76399994	0	0	-1.402872801	7.648227215	97.96382904	1.0
168	-36.76399994	0	0	-1.449887156	7.600757122	97.44085693	1.0
169	-36.76399994	0	0	-1.493264914	7.555849075	96.9524765	1.0
[RightHandIndex3]
166	-28.83100128	0	0	-3.180554719e-15	0	0	1.0
167	-28.83100128	0	0	-3.180554719e-15	0	0	1.0
168	-28.83100128	0	0	-3.180554719e-15	0	0	1.0
169	-28.83100128	0	0	-3.180554719e-15	0	0	1.0
[RightHandIndex4]
166	-23.92700005	0	0	0	0	0	1.0
167	-23.92700005	0	0	0	0	0	1.0
168	-23.92700005	0	0	0	0	0	1.0
169	-23.92700005	0	0	0	0	0	1.0
[RightHandThumb1]
166	-24.64799881	-15.72700024	26.82600021	9.321953773	15.11701298	2.963801146	1.0
167	-24.64799881	-15.72700024	26.82600021	9.419333458	15.25601006	2.772916079	1.0
168	-24.64799881	-15.72700024	26.82600021	9.515918732	15.39312649	2.585667849	1.0
169	-24.64799881	-15.72700024	26.82600021	9.611801147	15.52790642	2.403098822	1.0
[RightHandThumb2]
166	-32.29800034	-18.64699936	18.64699936	-0.874068439	-36.14269638	46.73471069	1.0
167	-32.29800034	-18.64699936	18.64699936	-0.9162632227	-35.98329926	46.94909286	1.0
168	-32.29800034	-18.64699936	18.64699936	-0.9568451047	-35.83000183	47.16168976	1.0
169	-32.29800034	-18.64699936	18.64699936	-0.9958980083	-35.68507385	47.37271118	1.0
[RightHandThumb3]
166	-26.52600098	-15.31399918	15.31399918	-3.81245151e-08	-0.00121095567	-0.001221005921	1.0
167	-26.52600098	-15.31399918	15.31399918	-3.81245151e-08	-0.00121095567	-0.001221005921	1.0
168	-26.52600098	-15.31399918	15.31399918	-3.81245151e-08	-0.00121095567	-0.001221005921	1.0
169	-26.52600098	-15.31399918	15.31399918	-3.81245151e-08	-0.00121095567	-0.001221005921	1.0
[RightHandThumb4]
166	-19.54599953	-11.28499985	11.28499985	0	0	0	1.0
167	-19.54599953	-11.28499985	11.28499985	0	0	0	1.0
168	-19.54599953	-11.28499985	11.28499985	0	0	0	1.0
169	-19.54599953	-11.28499985	11.28499985	0	0	0	1.0
[LeftUpLeg]
166	82.07800293	-67.51699829	-15.99599934	-11.16301823	22.46922874	9.912553787	1.0
167	82.07800293	-67.51699829	-15.99599934	-11.1554842	22.19116211	9.772393227	1.0
168	82.07800293	-67.51699829	-15.99599934	-11.19888973	21.99411583	9.607459068	1.0
169	82.07800293	-67.51699829	-15.99599934	-11.24148083	21.83483124	9.436075211	1.0
[LeftLeg]
166	0	-443.7049866	2.845999956	28.86066628	3.37561512	1.787665009	1.0
167	0	-443.7049866	2.845999956	28.31875229	3.196867228	1.879329681	1.0
168	0	-443.7049866	2.845999956	27.80267334	3.043812513	1.913218021	1.0
169	0	-443.7049866	2.845999956	27.30982208	2.91033411	1.921424985	1.0
[LeftFoot]
166	0	-444.2789917	-29.8219986	-4.080559254	-0.1794371605	-11.40930367	1.0
167	0	-444.2789917	-29.8219986	-3.719356537	-0.1825457364	-11.44025612	1.0
168	0	-444.2789917	-29.8219986	-3.389375448	-0.1590675116	-11.4353981	1.0
169	0	-444.2789917	-29.8219986	-3.105841637	-0.05142743513	-11.43223763	1.0
[LeftToeBase]
166	0	-87.28699493	107.1060028	1.564848781	-1.65236288e-05	2.742594233e-06	1.0
167	0	-87.28699493	107.1060028	1.629846334	2.518005203e-06	-2.114629751e-06	1.0
168	0	-87.28699493	107.1060028	1.690694809	1.573888539e-06	-3.375672577e-06	1.0
169	0	-87.28699493	107.1060028	1.746322513	-2.431221674e-06	-2.770481615e-06	1.0
[RightUpLeg]
166	-82.07800293	-67.51699829	-15.99599934	-3.290801525	-14.36245155	-14.78211403	1.0
167	-82.07800293	-67.51699829	-15.99599934	-2.99363637	-14.25450611	-14.55396271	1.0
168	-82.07800293	-67.51699829	-15.99599934	-2.834804773	-14.12862778	-14.36584568	1.0
169	-82.07800293	-67.51699829	-15.99599934	-2.768012047	-13.99490261	-14.22223568	1.0
[RightLeg]
166	0	-443.7049866	2.861999989	36.0188446	8.435641289	-0.5495484471	1.0
167	0	-443.7049866	2.861999989	35.54289246	7.898564339	-1.040770888	1.0
168	0	-443.7049866	2.861999989	35.12871933	7.411314487	-1.456946015	1.0
169	0	-443.7049866	2.861999989	34.75976944	7.020235538	-1.771992445	1.0
[RightFoot]
166	0	-444.2770081	-29.83799934	-22.06819153	1.263098717	10.08848667	1.0
167	0	-444.2770081	-29.83799934	-21.87213707	1.277350187	10.28282833	1.0
168	0	-444.2770081	-29.83799934	-21.68372917	1.28726387	10.45295143	1.0
169	0	-444.2770081	-29.83799934	-21.4981842	1.289181113	10.58294487	1.0
[RightToeBase]
166	0	-87.28699493	107.1060028	-2.626542091	-1.525642983e-05	7.687546031e-07	1.0
167	0	-87.28699493	107.1060028	-2.460858345	-1.198014706e-05	1.263223453e-06	1.0
168	0	-87.28699493	107.1060028	-2.283056021	-1.735896512e-05	-1.408949402e-06	1.0
169	0	-87.28699493	107.1060028	-2.131098747	-8.672131116e-06	-2.353626996e-06	1.0
[EndOfFile]
